<svg width="203" height="64" viewBox="0 0 203 64" fill="none" xmlns="http://www.w3.org/2000/svg">
<path d="M1 12C1 6.47715 5.47715 2 11 2H191C196.523 2 201 6.47715 201 12V52C201 57.5228 196.523 62 191 62H11C5.47716 62 1 57.5228 1 52V12Z" fill="#FF9F1C"/>
<path d="M160.759 63.2404C149.661 62.9745 140.924 64.15 127.396 63.9838C113.869 63.8177 111.842 63.1941 96.35 63.3344C80.8584 63.4747 65.3579 63.0482 58.4599 63.3044C51.5623 63.5607 50.8342 62.7859 41.0389 62.958C31.244 63.13 25.3075 63.0289 16.7411 62.777C15.2842 62.7342 13.314 62.6925 11 62.6542C6.32057 62.8744 0.322069 58.2473 0.509976 52C0.559385 43.0239 0.537453 33.8512 0.380424 28.9936C0.199926 23.4098 0.307463 17.3682 0.453659 12C0.533609 7.88006 3.11452 4.72293 5.50188 3.3303C7.30668 2.23834 8.9889 1.95487 10.2272 1.91464C10.7571 1.90091 10.9997 1.96161 11 2.00901C11 2.00905 11 2.00908 11 2.00911C10.9988 2.0735 10.627 2.11847 9.96981 2.19212C6.8756 2.3554 1.72129 5.52525 1.52752 11.2653C1.51859 11.5167 1.51949 11.7593 1.52863 12C1.89366 22.0262 1.46109 23.489 1.66973 37.6274C1.74855 42.9682 1.85639 47.5234 1.94732 52C1.98491 56.5183 5.75742 60.8619 11 60.8753C14.0888 60.8778 17.4303 60.9046 21.174 60.9653C38.2274 61.2418 42.1444 60.0847 66.2171 60.7404C90.2892 61.3961 92.8228 60.186 116.811 60.0251C140.8 59.8642 171.082 60.5319 185.542 60.4765C187.291 60.4698 189.113 60.4619 191 60.4533C195.114 60.5805 199.488 56.8256 199.388 52C199.355 41.7527 199.349 30.4425 199.44 18.7836C199.457 16.575 199.468 14.3107 199.473 12C199.622 7.67001 195.666 3.41976 191 3.54396C175.945 3.59603 159.923 3.7058 145.057 3.51861C122.428 3.23367 90.4363 2.87378 75.6564 2.63262C60.8771 2.39147 57.2748 2.33708 43.049 2.48443C34.8718 2.56913 23.607 2.48929 14.0919 2.17779C9.30328 2.02102 10.3884 1.80274 15.2083 1.6983C22.2565 1.54558 28.0424 1.6476 31.6741 1.37481C38.9309 0.829619 42.0151 0.620476 51.1764 0.937797C60.3371 1.25508 64.6537 0.534003 69.9939 0.616997C75.3343 0.700031 75.2464 1.12535 102.4 0.797661C129.554 0.469957 144.44 0.386341 154.722 0.30767C162.618 0.247264 177.11 0.450869 191 0.488352C195.895 0.432105 200.358 3.82637 201.849 8.07294C202.285 9.25018 202.552 10.5873 202.558 12C202.617 22.8104 202.604 38.5115 202.633 52C202.744 59.0872 196.159 63.94 191 63.7026C188.983 63.7194 187.171 63.7397 185.619 63.7644C171.885 63.9825 171.857 63.5064 160.759 63.2404Z" fill="#3A3A3A"/>
</svg>
