<svg width="303" height="64" viewBox="0 0 303 64" fill="none" xmlns="http://www.w3.org/2000/svg">
<path d="M1 12C1 6.47715 5.47715 2 11 2H291C296.523 2 301 6.47715 301 12V52C301 57.5228 296.523 62 291 62H11C5.47716 62 1 57.5228 1 52V12Z" fill="#FF9F1C"/>
<path d="M248.731 63.2404C233.218 62.9745 221.006 64.15 202.098 63.9838C183.19 63.8177 180.358 63.1941 158.703 63.3344C137.05 63.4747 115.384 63.0482 105.743 63.3044C96.1016 63.5607 95.084 62.7859 81.3925 62.958C67.7018 63.13 59.404 63.0289 47.4304 62.777C40.4912 62.6311 25.2197 62.4975 11 62.4712C4.9427 62.5862 0.306526 56.949 0.504364 52C0.480206 48.0274 0.440056 44.5791 0.380424 42.0007C0.147617 31.9342 0.393985 20.803 0.584437 12C0.63624 8.96106 2.04549 6.385 3.70876 4.77471C5.82964 2.71008 8.2052 2.06795 9.92145 1.94239C10.6597 1.89272 10.9998 1.96355 11 2.00901C11 2.00905 11 2.00908 11 2.00911C10.9988 2.0762 10.477 2.10628 9.56247 2.24298C6.19174 2.58149 1.21856 6.16491 1.36843 12C1.40649 13.6542 1.44998 15.3806 1.49956 17.1679C1.90118 31.6431 1.48709 33.6781 1.64961 52C1.65549 52.6251 1.72363 53.2686 1.86683 53.9175C2.86334 58.4931 7.11964 61.2921 11 61.1493C24.2344 60.9499 35.5917 60.7561 53.6266 60.9653C77.4628 61.2418 82.9378 60.0847 116.585 60.7404C150.232 61.3961 153.773 60.186 187.303 60.0251C220.834 59.8642 263.159 60.5319 283.371 60.4765C285.816 60.4698 288.362 60.4619 291 60.4533C295.204 60.5772 299.507 56.757 299.404 52C299.37 39.7175 299.348 26.1526 299.387 12C299.458 8.46989 296.987 5.00851 293.521 3.94277C292.717 3.68522 291.866 3.54939 291 3.54536C262.907 3.42779 228.899 3.79358 198.377 3.51861C166.748 3.23367 122.032 2.87378 101.373 2.63262C80.7155 2.39147 75.6804 2.33708 55.7963 2.48443C44.3667 2.56913 28.6214 2.48929 15.3217 2.17779C8.62842 2.02102 10.1451 1.80274 16.8821 1.6983C26.7338 1.54558 34.8209 1.6476 39.8971 1.37481C50.0403 0.829619 54.3513 0.620476 67.1563 0.937797C79.9607 1.25508 85.9942 0.534003 93.4584 0.616997C100.923 0.700031 100.8 1.12535 138.754 0.797661C176.708 0.469957 197.514 0.386341 211.887 0.30767C226.26 0.228999 256.272 0.598135 279.696 0.464897C283.026 0.445961 286.844 0.432182 291 0.421853C296.66 0.19761 302.721 5.38154 302.603 12C302.616 25.1694 302.617 39.5837 302.644 52C302.749 58.9819 296.351 63.9182 291 63.7026C288.181 63.7194 285.648 63.7397 283.479 63.7644C264.283 63.9825 264.243 63.5064 248.731 63.2404Z" fill="#3A3A3A"/>
</svg>
