<svg width="420" height="128" viewBox="0 0 420 128" fill="none" xmlns="http://www.w3.org/2000/svg">
<g filter="url(#filter0_d_55_8)">
<path d="M16 28C16 19.7157 22.7157 13 31 13H388C396.284 13 403 19.7157 403 28V92C403 100.284 396.284 107 388 107H31C22.7157 107 16 100.284 16 92V28Z" fill="#FF9F1C"/>
<path d="M331.693 108.24C311.028 107.974 294.76 109.15 269.573 108.984C244.385 108.818 240.613 108.194 211.767 108.334C182.922 108.475 154.061 108.048 141.217 108.304C128.374 108.561 127.019 107.786 108.78 107.958C90.5426 108.13 79.4891 108.029 63.5389 107.777C56.8873 107.672 44.4884 107.573 31 107.517C22.7508 107.749 15.2482 100.009 15.5333 92C15.5307 81.1733 15.4863 71.4244 15.3804 65.3268C15.1647 52.904 15.3603 39.2638 15.5417 28C15.5969 22.9 18.2486 18.6901 21.1481 16.3396C24.1622 13.8621 27.2837 13.1137 29.5678 12.9525C30.5487 12.8897 30.9991 12.9643 31 13.009C31 13.009 31 13.0091 31 13.0091C30.9985 13.0773 30.3023 13.1015 29.0742 13.2626C24.0668 13.6455 16.2338 18.9589 16.4158 28C16.4416 29.3834 16.4694 30.8002 16.4996 32.2469C16.9158 52.2319 16.4558 54.4158 16.6697 81.4025C16.6992 85.1162 16.7326 88.6258 16.7678 92C16.801 100.066 23.7837 106.184 31 105.978C42.8577 105.869 55.2048 105.821 71.7929 105.965C103.545 106.242 110.839 105.085 155.661 105.74C200.482 106.396 205.199 105.186 249.865 105.025C294.531 104.864 350.913 105.532 377.838 105.477C381.094 105.47 384.486 105.462 388 105.453C394.642 105.663 401.549 99.6286 401.399 92C401.36 72.4711 401.342 50.6303 401.426 28C401.43 26.9443 401.313 25.8892 401.072 24.8611C399.854 19.1971 394.279 14.4262 388 14.5213C354.092 14.5169 315.627 14.7554 280.607 14.5186C238.474 14.2337 178.906 13.8738 151.387 13.6326C123.869 13.3915 117.161 13.3371 90.6735 13.4844C75.4481 13.5691 54.4736 13.4893 36.7569 13.1778C27.8408 13.021 29.8612 12.8027 38.8356 12.6983C51.9591 12.5456 62.7321 12.6476 69.494 12.3748C83.0059 11.8296 88.7486 11.6205 105.806 11.9378C122.863 12.2551 130.9 11.534 140.844 11.617C150.787 11.7 150.623 12.1254 201.182 11.7977C251.741 11.47 279.457 11.3863 298.604 11.3077C317.56 11.2298 356.937 11.5908 388 11.4687C388.345 11.4675 388.685 11.4767 389.027 11.4963C396.013 11.5765 404.679 18.2448 404.59 28C404.616 47.8018 404.611 71.6795 404.64 92C404.786 102.04 395.539 109.035 388 108.703C384.244 108.719 380.871 108.74 377.981 108.764C352.41 108.982 352.357 108.506 331.693 108.24Z" fill="#3A3A3A"/>
</g>
<defs>
<filter id="filter0_d_55_8" x="0.285706" y="0.296539" width="419.356" height="127.703" filterUnits="userSpaceOnUse" color-interpolation-filters="sRGB">
<feFlood flood-opacity="0" result="BackgroundImageFix"/>
<feColorMatrix in="SourceAlpha" type="matrix" values="0 0 0 0 0 0 0 0 0 0 0 0 0 0 0 0 0 0 127 0" result="hardAlpha"/>
<feOffset dy="4"/>
<feGaussianBlur stdDeviation="7.5"/>
<feComposite in2="hardAlpha" operator="out"/>
<feColorMatrix type="matrix" values="0 0 0 0 0.225962 0 0 0 0 0.225962 0 0 0 0 0.225962 0 0 0 1 0"/>
<feBlend mode="normal" in2="BackgroundImageFix" result="effect1_dropShadow_55_8"/>
<feBlend mode="normal" in="SourceGraphic" in2="effect1_dropShadow_55_8" result="shape"/>
</filter>
</defs>
</svg>
