<svg width="298" height="291" viewBox="0 0 298 291" fill="none" xmlns="http://www.w3.org/2000/svg">
<path d="M143.28 5.07418C145.048 -0.511893 152.952 -0.5119 154.72 5.07417L185.617 102.696C186.406 105.19 188.721 106.886 191.337 106.886H291.649C297.423 106.886 299.865 114.243 295.236 117.695L213.814 178.427C211.766 179.955 210.91 182.612 211.68 185.047L242.717 283.111C244.475 288.667 238.08 293.215 233.409 289.731L152.587 229.447C150.459 227.859 147.541 227.859 145.413 229.447L64.5908 289.731C59.9197 293.215 53.5248 288.667 55.2831 283.111L86.3195 185.047C87.0904 182.612 86.2344 179.955 84.1865 178.427L2.76353 117.695C-1.86486 114.243 0.576778 106.886 6.35087 106.886H106.663C109.279 106.886 111.594 105.19 112.383 102.696L143.28 5.07418Z" fill="#D9D9D9"/>
</svg>
